<svg width="175" height="42" viewBox="0 0 175 42" fill="none" xmlns="http://www.w3.org/2000/svg">
<path d="M29.3388 23.5132C29.3388 26.0506 27.7182 26.8349 26.144 26.8349C24.6161 26.8349 22.903 26.0506 22.903 23.5132V11.595H15.4795V25.0818C15.4795 29.603 19.1372 33.6322 26.144 33.6322C33.1971 33.6322 36.7623 29.6184 36.7623 25.0818V11.595H29.3388V23.5132Z" fill="#FAFAFA"/>
<path d="M41.3459 17.9155V33.0785H48.754V11.595H41.3459V17.9155Z" fill="#FAFAFA"/>
<path d="M45.02 0C42.5198 0 40.5752 1.98381 40.5752 4.4751C40.5752 6.9664 42.5198 8.90407 45.02 8.90407C47.5203 8.90407 49.5112 6.9664 49.5112 4.4751C49.5266 1.98381 47.5357 0 45.02 0Z" fill="#FAFAFA"/>
<path d="M63.6786 17.7313C65.7621 17.7313 67.2437 19.1154 67.7067 21.1453L75.0376 19.7151C73.9264 14.4096 69.2964 11.0417 63.6323 11.0417C57.1811 11.0417 52.0417 15.7475 52.0417 22.3141C52.0417 28.8807 57.1811 33.6326 63.6323 33.6326C69.2809 33.6326 73.9727 30.2647 75.0376 24.9438L67.7067 23.5136C67.2437 25.5435 65.7621 26.9276 63.6786 26.9276C61.2247 26.9276 59.4653 24.9438 59.4653 22.3141C59.4653 19.6383 61.2247 17.7313 63.6786 17.7313Z" fill="#FAFAFA"/>
<path d="M88.1558 11.0417C81.612 11.0417 76.7505 15.7937 76.7505 22.3141C76.7505 28.8807 81.7046 33.6326 88.2484 33.6326C93.2489 33.6326 97.3851 31.5565 99.3297 26.6047L91.9988 25.4051C91.3969 26.6508 89.9153 27.3428 88.4336 27.3428C86.3038 27.3428 84.8685 25.9126 84.5444 24.3902H99.7464V23.975C99.7464 14.8248 94.2366 11.0417 88.1558 11.0417ZM84.3129 19.7767C84.6833 18.1619 86.1649 16.9624 88.1558 16.9624C90.1468 16.9624 91.6284 18.1619 91.9988 19.7767H84.3129Z" fill="#FAFAFA"/>
<path d="M140.136 11.0417C133.685 11.0417 128.545 15.7475 128.545 22.3141C128.545 28.8807 133.685 33.6326 140.136 33.6326C146.587 33.6326 151.727 28.8807 151.727 22.3141C151.727 15.7475 146.572 11.0417 140.136 11.0417ZM140.136 26.9276C137.682 26.9276 135.969 24.9438 135.969 22.3141C135.969 19.6383 137.682 17.7467 140.136 17.7467C142.544 17.7467 144.303 19.6383 144.303 22.3141C144.303 24.9438 142.544 26.9276 140.136 26.9276Z" fill="#FAFAFA"/>
<path d="M175 11.595H166.697L163.78 16.9928L160.986 11.595H152.421L158.625 22.3137L152.328 33.0785H160.847L163.641 27.527L166.511 33.0785H175L168.827 22.1753L175 11.595Z" fill="#FAFAFA"/>
<path d="M0.926009 17.9775H3.75034V33.7711C3.75034 34.6015 3.33363 34.9244 2.08352 34.9244H0V41.2603H3.47253C6.48206 41.2603 11.1738 41.0758 11.1738 35.7703V11.6416H0.926009V17.9775Z" fill="#FAFAFA"/>
<path d="M7.19216 0.0461426C4.69193 0.0461426 2.74731 2.02995 2.74731 4.52125C2.74731 7.01254 4.69193 8.95022 7.19216 8.95022C9.69238 8.95022 11.6833 7.01254 11.6833 4.52125C11.6833 2.02995 9.69238 0.0461426 7.19216 0.0461426Z" fill="#FAFAFA"/>
<path d="M116.399 11.0415C113.019 11.0415 110.982 12.4256 109.994 13.9481C109.994 13.9481 110.179 12.6563 110.179 11.0877V0.738037H102.756V33.0787H110.179V30.7258C111.152 32.2022 113.328 33.6324 116.399 33.6324C122.001 33.6324 126.508 28.8804 126.508 22.3139C126.508 15.7473 122.001 11.0415 116.399 11.0415ZM114.408 26.9274C111.862 26.9274 110.056 24.8052 110.056 22.3139C110.056 19.7765 111.862 17.7465 114.408 17.7465C117.001 17.7465 118.807 19.7765 118.807 22.3139C118.807 24.8052 117.001 26.9274 114.408 26.9274Z" fill="#FAFAFA"/>
</svg>
